#!OML:ASF F:\VICON\USERDATA\INSTALL\rory3\rory3.ASF
:FULLY-SPECIFIED
:DEGREES
44
root 0.524462566882463 17.79273669817765 22.610601013693024 -2.5265789485595147 -4.727154038335404 -4.207804098853837
lfemur -22.902069556247277 -3.3380777948414617 -17.8573168693626
ltibia 22.43043610543569
lfoot -2.8379714533081244 -2.035545821665279
ltoes -1.0810128262867567
rfemur 10.02182674749025 4.410381738933821 28.001307201435313
rtibia 45.83225139565829
rfoot 5.623347178582586 3.4155157062384163
rtoes 3.0171923487619177
lowerback 8.752886784520708 3.1575283943871075 4.885129819514302
upperback 0.05084030523328442 4.686260455000209 0.7437288737963873
thorax -4.684571610243826 2.2249139530172433 -2.3733661689500196
lowerneck -16.75908034816322 -3.521190573438666 -1.6217079131291823
upperneck 21.130999723323423 -4.742643511359943 1.7564071196568913
head 9.5164961415045 -2.152479482823129 0.21854441618996068
lclavicle -3.096436003407054e-15 -6.155841955724127e-16
lhumerus -39.88860069983985 8.999572673638829 81.30091170354117
lradius 18.19072820995477
lwrist -1.1761366414402241
lhand -24.48175651959468 25.607842254599895
lfingers 7.1250199999999975
lthumb 2.0119321438734916 55.57377977389055
rclavicle -3.096436003407054e-15 -6.155841955724127e-16
rhumerus -24.483286700532044 -13.519660036879781 -81.81294905741555
rradius 28.766778298598826
rwrist 2.861736546063387
rhand -18.37130994629575 23.317434237993734
rfingers 7.1250199999999975
rthumb 7.911897025359961 -6.439612932916279
45
root 0.6337983769131934 17.868303353918815 23.772138135814515 -3.3106398388618903 -4.855729651976745 -2.2279568007328776
lfemur -19.24437405272892 -2.9277498878498993 -20.988901143768732
ltibia 25.749589797542367
lfoot -4.956095075075769 -1.603686140668465
ltoes 0.7603992552679268
rfemur 3.3685204716867787 3.0977166034480232 24.71143407812238
rtibia 59.39126413604845
rfoot 14.824794276844854 1.8942840363270523
rtoes 10.58540957361144
lowerback 9.164322286882507 3.0799979790705536 3.0918207421844857
upperback 0.1472481068704075 4.3837555078394335 0.34323769840764284
thorax -4.834922775902601 2.109613462777331 -1.7063425021905694
lowerneck -16.714191907573973 -3.3737374427495266 -1.7112743354547475
upperneck 21.12937354184012 -4.543215914174189 1.8261471738637414
head 9.525530842545438 -2.0665917329679355 0.28463205034828964
lclavicle -2.7378999972285807e-15 -3.764672789279248e-16
lhumerus -39.3433972228408 8.821535095971551 81.25999920438726
lradius 18.536835413856046
lwrist 0.4882335199304393
lhand -25.019098248961317 25.44458432979005
lfingers 7.1250199999999975
lthumb 1.4929801935079157 55.410199304021546
rclavicle -2.7378999972285807e-15 -3.764672789279248e-16
rhumerus -25.480391616505667 -15.401982954756104 -81.3473292807047
rradius 27.705907452695275
rwrist 4.373395357764877
rhand -17.899710862554677 22.755738671299305
rfingers 7.1250199999999975
rthumb 8.367043556050039 -6.999584748577819
46
root 0.7091388978214016 17.92733714844422 24.363446983365 -3.9360568680356653 -5.01640635406504 -0.6920874416347726
lfemur -15.253979227856725 -3.1081708647590984 -23.58405316901537
ltibia 25.72570122248925
lfoot -7.9762255297775635 0.24887636550463044
ltoes 1.4729508135880356
rfemur -4.858013789474299 1.7182502278515224 21.989540699516226
rtibia 70.39721362334822
rfoot 15.372565284238261 -1.957838533896176
rtoes 14.740565290837814
lowerback 9.566810410217387 2.7713187355619233 1.3285293031813574
upperback 0.3300476496563416 3.787464417373465 0.09785452230271052
thorax -4.932655976613624 1.8509769168359602 -1.010590564741637
lowerneck -16.72007506973461 -3.1091178045067975 -1.766146942511801
upperneck 20.99083313731403 -4.164830682583815 1.6993316612825413
head 9.473919205722241 -1.9154600384425908 0.3087969575919415
lclavicle -2.999158232813607e-15 -5.507334550983603e-16
lhumerus -38.18504109141806 7.655255736051212 81.65602421774626
lradius 19.286928284782814
lwrist 2.2217378607970844
lhand -26.347660245384297 23.99748704332804
lfingers 7.1250199999999975
lthumb 0.20993163397709547 53.96697315010968
rclavicle -2.999158232813607e-15 -5.507334550983603e-16
rhumerus -26.216281532537696 -17.335162188031195 -80.96012618871953
rradius 26.33900560233671
rwrist 5.965702390278964
rhand -17.466179985121702 22.09935463003992
rfingers 7.1250199999999975
rthumb 8.785455718254852 -7.655077198378427
47
root 0.7685484812367245 17.95719580552393 25.459264953046592 -4.343969898695514 -4.723201974002263 0.46151578087960177
lfemur -11.08588791219851 -3.5301547947396097 -25.406086291115166
ltibia 25.09665713603483
lfoot -10.691103805126076 2.3039672584843114
ltoes 1.887791956593777
rfemur -12.911860716566126 0.36798683362733886 20.406508808523764
rtibia 77.35354599653988
rfoot 8.427056474208426 -5.247816162924545
rtoes 13.993505247216385
lowerback 9.875861072326389 2.2515405165213243 -0.035706045698923106
upperback 0.5487310515438124 2.9441019322777864 0.06326339411800874
thorax -4.958051895911117 1.4666891953231276 -0.23549300201548828
lowerneck -16.67665042648745 -2.8342729366938757 -1.7859960097529997
upperneck 20.909392911892297 -3.75464951408405 1.4497977404169533
head 9.425976418820008 -1.7588904800400704 0.3055894700025251
lclavicle -3.035916066023664e-15 -5.752508643583446e-16
lhumerus -36.01599538223181 5.963350136158737 82.14145379530578
lradius 19.986627061219224
lwrist 2.911580038881796
lhand -27.191248873646867 22.716881903624582
lfingers 7.1250199999999975
lthumb -0.6047360330074095 52.689343441477426
rclavicle -3.035916066023664e-15 -5.752508643583446e-16
rhumerus -26.79125514675597 -18.887645508445704 -80.67519499089327
rradius 25.164141082242658
rwrist 7.162621080986343
rhand -17.200354870492536 21.681021988604897
rfingers 7.1250199999999975
rthumb 9.042013716581428 -8.087245621858353
48
root 0.7986064917351552 17.949485025451644 26.149286475999723 -4.521037438485587 -3.9924322367705347 1.2471434131766226
lfemur -7.369433068487563 -3.8988148319168414 -26.862939379275346
ltibia 24.790222407355625
lfoot -13.240127141033366 3.665222449949785
ltoes 2.3638691545368453
rfemur -20.470768479834824 -0.8330092876651367 19.651687393707867
rtibia 78.84697502838267
rfoot -0.34493506894116965 -6.841065731291499
rtoes 10.173634181937881
lowerback 10.13793686773253 1.530798589522719 -1.1437683229426143
upperback 0.7181484580267437 1.8657752596717003 0.16517325993209253
thorax -4.986622644085521 0.9609283764244918 0.5568448900075211
lowerneck -16.613843911163244 -2.6606221321530064 -1.9474747874825573
upperneck 20.88793802988674 -3.472942565699166 1.269956890223334
head 9.396426211000186 -1.6564665090059185 0.3264303602785025
lclavicle -3.194305556558528e-15 -6.808948129286036e-16
lhumerus -33.14846413973932 3.6148217251917334 82.48124448327687
lradius 20.692819516787836
lwrist 3.0399701979393896
lhand -27.322873106853308 22.493481276902195
lfingers 7.1250199999999975
lthumb -0.7318291476845515 52.46864475481355
rclavicle -3.194305556558528e-15 -6.808948129286036e-16
rhumerus -27.550059204118007 -19.89263489547877 -80.4606308528578
rradius 24.495847953194108
rwrist 7.4616365977309105
rhand -17.15169840610956 21.51967507115456
rfingers 7.1250199999999975
rthumb 9.088965849213377 -8.2930445694164
